<svg xmlns="http://www.w3.org/2000/svg" width="50" height="50" viewBox="0 0 50 50"><g><g><g><path fill="#eee8f7" d="M7 0h36a7 7 0 0 1 7 7v36a7 7 0 0 1-7 7H7a7 7 0 0 1-7-7V7a7 7 0 0 1 7-7z"/></g><g><path fill="#7568ff" d="M18 15h14a3 3 0 0 1 3 3v14a3 3 0 0 1-3 3H18a3 3 0 0 1-3-3V18a3 3 0 0 1 3-3z"/></g><g><g><path fill="none" stroke="#151515" stroke-linecap="round" stroke-miterlimit="50" stroke-width="2" d="M7.774 12.22v0h4.433v0-4.433 0"/></g><g><path fill="none" stroke="#151515" stroke-linecap="round" stroke-miterlimit="50" stroke-width="2" d="M42.224 12.22v0H37.79v0-4.433 0"/></g><g><path fill="none" stroke="#151515" stroke-linecap="round" stroke-miterlimit="50" stroke-width="2" d="M7.774 37.78v0h4.433v4.433"/></g><g><path fill="none" stroke="#151515" stroke-linecap="round" stroke-miterlimit="50" stroke-width="2" d="M42.224 37.78v0H37.79v4.433"/></g><g><path fill="none" stroke="#151515" stroke-linecap="round" stroke-miterlimit="50" stroke-width="2" d="M37.999 12l5-5"/></g><g><path fill="none" stroke="#151515" stroke-linecap="round" stroke-miterlimit="50" stroke-width="2" d="M12 12L7 7"/></g><g><path fill="none" stroke="#151515" stroke-linecap="round" stroke-miterlimit="50" stroke-width="2" d="M12 38l-5 5"/></g><g><path fill="none" stroke="#151515" stroke-linecap="round" stroke-miterlimit="50" stroke-width="2" d="M37.999 38l5 5"/></g></g></g></g></svg>