<svg xmlns="http://www.w3.org/2000/svg" width="50" height="50" viewBox="0 0 50 50"><defs><clipPath id="ktsta"><path fill="#fff" d="M7 20h16a7 7 0 0 1 7 7v16a7 7 0 0 1-7 7H7a7 7 0 0 1-7-7V27a7 7 0 0 1 7-7z"/></clipPath></defs><g><g><g><path fill="#eee8f7" d="M23 9h10a7 7 0 0 1 7 7v10a7 7 0 0 1-7 7H23a7 7 0 0 1-7-7V16a7 7 0 0 1 7-7z"/></g><g><path fill="#7568ff" d="M33 0h14a3 3 0 0 1 3 3v14a3 3 0 0 1-3 3H33a3 3 0 0 1-3-3V3a3 3 0 0 1 3-3z"/></g><g><path fill="#fff" d="M7 20h16a7 7 0 0 1 7 7v16a7 7 0 0 1-7 7H7a7 7 0 0 1-7-7V27a7 7 0 0 1 7-7z"/><path fill="none" stroke="#ff8a4a" stroke-miterlimit="50" stroke-width="4" d="M7 20h16a7 7 0 0 1 7 7v16a7 7 0 0 1-7 7H7a7 7 0 0 1-7-7V27a7 7 0 0 1 7-7z" clip-path="url(&quot;#ktsta&quot;)"/></g><g><g><path fill="none" stroke="#151515" stroke-linecap="round" stroke-miterlimit="50" stroke-width="2" d="M17.774 27.78v0h4.433v4.433"/></g><g><path fill="none" stroke="#151515" stroke-linecap="round" stroke-miterlimit="50" stroke-width="2" d="M22 28l-5.001 5"/></g></g></g></g></svg>