<svg xmlns="http://www.w3.org/2000/svg" width="50" height="50" viewBox="0 0 50 50"><defs><clipPath id="ypqla"><path fill="#fff" d="M7 0h36a7 7 0 0 1 7 7v36a7 7 0 0 1-7 7H7a7 7 0 0 1-7-7V7a7 7 0 0 1 7-7z"/></clipPath></defs><g><g><g><path fill="none" stroke="#e9e3f2" stroke-miterlimit="50" stroke-width="4" d="M7 0h36a7 7 0 0 1 7 7v36a7 7 0 0 1-7 7H7a7 7 0 0 1-7-7V7a7 7 0 0 1 7-7z" clip-path="url(&quot;#ypqla&quot;)"/></g><g><g><path fill="#151515" d="M0 15h35v2H0z"/></g><g><path fill="#151515" d="M15 33h35v2H15z"/></g><g><path fill="#151515" d="M33 15h2v35h-2z"/></g><g><path fill="#151515" d="M15 0h2v35h-2z"/></g></g><g><path fill="#7568ff" d="M15 15h20v20H15z"/></g></g></g></svg>