<svg xmlns="http://www.w3.org/2000/svg" width="50" height="50" viewBox="0 0 50 50"><defs><style>@import url('https://fonts.googleapis.com/css?family=Montserrat:800');</style><clipPath id="e2wva"><path fill="#fff" d="M3 0h44a3 3 0 0 1 3 3v44a3 3 0 0 1-3 3H3a3 3 0 0 1-3-3V3a3 3 0 0 1 3-3z"/></clipPath></defs><g><g><g><path fill="#e9e3f2" d="M3 0h24a3 3 0 0 1 3 3v24a3 3 0 0 1-3 3H3a3 3 0 0 1-3-3V3a3 3 0 0 1 3-3z"/></g><g><path fill="none" stroke="#eee8f7" stroke-miterlimit="50" stroke-width="4" d="M3 0h44a3 3 0 0 1 3 3v44a3 3 0 0 1-3 3H3a3 3 0 0 1-3-3V3a3 3 0 0 1 3-3z" clip-path="url(&quot;#e2wva&quot;)"/></g><g><path fill="#7cd3e5" d="M23 20h24a3 3 0 0 1 3 3v24a3 3 0 0 1-3 3H23a3 3 0 0 1-3-3V23a3 3 0 0 1 3-3z"/></g><g><g><path fill="none" stroke="#151515" stroke-linecap="round" stroke-miterlimit="50" stroke-width="2" d="M7.774 12.22v0h4.433v0-4.433 0"/></g><g><path fill="none" stroke="#151515" stroke-linecap="round" stroke-miterlimit="50" stroke-width="2" d="M12 12L7 7"/></g></g><g><g><text fill="#fff" style="line-height:22px" dominant-baseline="text-before-edge" font-family="'Montserrat-ExtraBold','Montserrat-ExtraBold'" font-size="10" font-style="none" font-weight="400" transform="translate(25 31)"><tspan letter-spacing="-.15" style="font-kerning:normal;font-family: Montserrat, sans-serif; font-weight:800;">JPG</tspan></text></g></g></g></g></svg>