<svg xmlns="http://www.w3.org/2000/svg" width="50" height="50" viewBox="0 0 50 50"><defs><clipPath id="jfuza"><path fill="#fff" d="M7 0h36a7 7 0 0 1 7 7v24a7 7 0 0 1-7 7H7a7 7 0 0 1-7-7V7a7 7 0 0 1 7-7z"/></clipPath><clipPath id="jfuzb"><path fill="#fff" d="M7 0h36a7 7 0 0 1 7 7v24a7 7 0 0 1-7 7H7a7 7 0 0 1-7-7V7a7 7 0 0 1 7-7z"/></clipPath><clipPath id="jfuzc"><path fill="#fff" d="M18 42h16a4 4 0 1 1 0 8H18z"/></clipPath><clipPath id="jfuzd"><path fill="#fff" d="M32 42h2v7h-2z"/></clipPath><clipPath id="jfuze"><path fill="#fff" d="M18 42l-6 4 6 4z"/></clipPath></defs><g><g><g><path fill="#ffb9a2" d="M2 34l13-13 11 11 4 4H7s-4.33.91-5-2z"/></g><g><path fill="#f197a5" d="M22.999 25l9-9 14 14 3 3s-2.441 4.342-5 4c-2.559-.342-15 0-15 0z"/></g><g><path fill="#ff8a4a" d="M18 10a4 4 0 1 1 0 8 4 4 0 0 1 0-8z"/></g><g><path fill="none" stroke="#eee8f7" stroke-miterlimit="50" stroke-width="4" d="M7 0h36a7 7 0 0 1 7 7v24a7 7 0 0 1-7 7H7a7 7 0 0 1-7-7V7a7 7 0 0 1 7-7z" clip-path="url(&quot;#jfuza&quot;)"/></g><g><path fill="none" stroke="#eee8f7" stroke-miterlimit="50" stroke-width="4" d="M7 0h36a7 7 0 0 1 7 7v24a7 7 0 0 1-7 7H7a7 7 0 0 1-7-7V7a7 7 0 0 1 7-7z" clip-path="url(&quot;#jfuzb&quot;)"/></g></g><g><g><path fill="#ece6f5" d="M18.999 43c.565-.025 14 0 14 0v6h-15s-3.558-5.802 1-6z"/></g><g><g><path fill="none" stroke="#6b60eb" stroke-miterlimit="50" stroke-width="4" d="M18 42v0h16a4 4 0 1 1 0 8H18v0z" clip-path="url(&quot;#jfuzc&quot;)"/></g><g><path fill="none" stroke="#6b60eb" stroke-miterlimit="50" stroke-width="4" d="M32 42v0h2v7h-2v0z" clip-path="url(&quot;#jfuzd&quot;)"/></g><g><path fill="none" stroke="#6b60eb" stroke-miterlimit="50" stroke-width="4" d="M18 42v0l-6 4v0l6 4v0z" clip-path="url(&quot;#jfuze&quot;)"/></g></g></g></g></svg>