<svg xmlns="http://www.w3.org/2000/svg" width="50" height="50" viewBox="0 0 50 50"><defs><clipPath id="d5g5a"><path fill="#fff" d="M7 0h36a7 7 0 0 1 7 7v36a7 7 0 0 1-7 7H7a7 7 0 0 1-7-7V7a7 7 0 0 1 7-7z"/></clipPath><clipPath id="d5g5b"><path fill="#fff" d="M29.978 18.35c.009.049.02.097.02.15 0 0-2 3.366-2 5.736V28h-6v-3.764C21.999 21.866 20 18.5 20 18.5c0-.053.013-.101.022-.15a6 6 0 1 1 9.957 0z"/></clipPath><clipPath id="d5g5c"><path fill="#fff" d="M19 30h12a7 7 0 0 1 7 7 2 2 0 0 1-2 2H14a2 2 0 0 1-2-2 7 7 0 0 1 7-7z"/></clipPath></defs><g><g><g><path fill="none" stroke="#ece6f5" stroke-miterlimit="50" stroke-width="4" d="M7 0h36a7 7 0 0 1 7 7v36a7 7 0 0 1-7 7H7a7 7 0 0 1-7-7V7a7 7 0 0 1 7-7z" clip-path="url(&quot;#d5g5a&quot;)"/></g></g><g><path fill="none" stroke="#f197a5" stroke-miterlimit="50" stroke-width="4" d="M29.978 18.35c.009.049.02.097.02.15 0 0-2 3.366-2 5.736V28h-6v-3.764C21.999 21.866 20 18.5 20 18.5c0-.053.013-.101.022-.15a6 6 0 1 1 9.957 0z" clip-path="url(&quot;#d5g5b&quot;)"/></g><g><path fill="#eee8f7" d="M19 30h12a7 7 0 0 1 7 7 2 2 0 0 1-2 2H14a2 2 0 0 1-2-2 7 7 0 0 1 7-7z"/><path fill="none" stroke="#6d61ee" stroke-miterlimit="50" stroke-width="4" d="M19 30h12a7 7 0 0 1 7 7 2 2 0 0 1-2 2H14a2 2 0 0 1-2-2 7 7 0 0 1 7-7z" clip-path="url(&quot;#d5g5c&quot;)"/></g><g><path fill="#6b5fea" d="M17 39h16v3H17z"/></g></g></svg>