<svg xmlns="http://www.w3.org/2000/svg" width="50" height="50" viewBox="0 0 50 50"><defs><clipPath id="hvhaa"><path fill="#fff" d="M3 0h44a3 3 0 0 1 3 3v44a3 3 0 0 1-3 3H3a3 3 0 0 1-3-3V3a3 3 0 0 1 3-3z"/></clipPath><clipPath id="hvhab"><path fill="#fff" d="M25 12c7.18 0 13 5.82 13 13s-5.82 13-13 13-13-5.82-13-13 5.82-13 13-13z"/></clipPath><clipPath id="hvhac"><path fill="#fff" d="M21 20a3 3 0 1 1 0 6 3 3 0 0 1 0-6z"/></clipPath><clipPath id="hvhad"><path fill="#fff" d="M29 20a3 3 0 1 1 0 6 3 3 0 0 1 0-6z"/></clipPath></defs><g><g><g><path fill="none" stroke="#ece6f5" stroke-miterlimit="50" stroke-width="4" d="M3 0h44a3 3 0 0 1 3 3v44a3 3 0 0 1-3 3H3a3 3 0 0 1-3-3V3a3 3 0 0 1 3-3z" clip-path="url(&quot;#hvhaa&quot;)"/></g><g><path fill="#ece6f5" d="M25 12c7.18 0 13 5.82 13 13s-5.82 13-13 13-13-5.82-13-13 5.82-13 13-13z"/><path fill="none" stroke="#6b5fea" stroke-miterlimit="50" stroke-width="4" d="M25 12c7.18 0 13 5.82 13 13s-5.82 13-13 13-13-5.82-13-13 5.82-13 13-13z" clip-path="url(&quot;#hvhab&quot;)"/></g><g><path fill="#fff" d="M21 20a3 3 0 1 1 0 6 3 3 0 0 1 0-6z"/><path fill="none" stroke="#ff8a4a" stroke-miterlimit="50" stroke-width="4" d="M21 20a3 3 0 1 1 0 6 3 3 0 0 1 0-6z" clip-path="url(&quot;#hvhac&quot;)"/></g><g><path fill="#fff" d="M29 20a3 3 0 1 1 0 6 3 3 0 0 1 0-6z"/><path fill="none" stroke="#ff8a4a" stroke-miterlimit="50" stroke-width="4" d="M29 20a3 3 0 1 1 0 6 3 3 0 0 1 0-6z" clip-path="url(&quot;#hvhad&quot;)"/></g><g><path fill="#f197a5" d="M19 28h12v1a5 5 0 0 1-5 5h-2a5 5 0 0 1-5-5z"/></g></g></g></svg>