<svg xmlns="http://www.w3.org/2000/svg" width="48" height="51" viewBox="0 0 48 51"><defs><clipPath id="nag0a"><path fill="#fff" d="M46.999 27c0 12.702-10.298 23-23 23-12.703 0-23-10.298-23-23C1 14.297 11.296 4 24 4"/></clipPath><clipPath id="nag0b"><path fill="#fff" d="M23.999 4c12.702 0 23 10.297 23 23"/></clipPath><clipPath id="nag0c"><path fill="#fff" d="M12 16h24a3 3 0 0 1 3 3v17a3 3 0 0 1-3 3H12a3 3 0 0 1-3-3V19a3 3 0 0 1 3-3z"/></clipPath><clipPath id="nag0d"><path d="M12 16h24a3 3 0 0 1 3 3v17a3 3 0 0 1-3 3H12a3 3 0 0 1-3-3V19a3 3 0 0 1 3-3z"/></clipPath></defs><g><g><path fill="none" stroke="#4e80ff" stroke-miterlimit="50" stroke-width="4" d="M46.999 27c0 12.702-10.298 23-23 23-12.703 0-23-10.298-23-23C1 14.297 11.296 4 24 4" clip-path="url(&quot;#nag0a&quot;)"/></g><g opacity=".3"><path fill="none" stroke="#7196fd" stroke-dasharray="0 8" stroke-linecap="round" stroke-miterlimit="50" stroke-width="4" d="M23.999 4c12.702 0 23 10.297 23 23" clip-path="url(&quot;#nag0b&quot;)"/></g><g><g><path fill="#ece6f5" d="M12 16h24a3 3 0 0 1 3 3v17a3 3 0 0 1-3 3H12a3 3 0 0 1-3-3V19a3 3 0 0 1 3-3z"/><path fill="none" stroke="#ece6f5" stroke-miterlimit="50" stroke-width="4" d="M12 16h24a3 3 0 0 1 3 3v17a3 3 0 0 1-3 3H12a3 3 0 0 1-3-3V19a3 3 0 0 1 3-3z" clip-path="url(&quot;#nag0c&quot;)"/></g><g clip-path="url(#nag0d)"><path fill="#ffb9a2" d="M11.199 35.579l6.8-6.869 6.6 6.658 2.4 2.421h-12.8s-2.597-.449-3-2.21z"/></g><g clip-path="url(#nag0d)"><path fill="#f197a5" d="M22.799 31.131l5.4-5.447 8.4 8.474.8.815s-1.464 2.628-3 2.421c-1.536-.206-8 1-8 1z"/></g><g><path fill="#ff8a4a" d="M19.797 22.062c1.32 0 2.39 1.085 2.39 2.422 0 1.338-1.07 2.422-2.39 2.422s-2.39-1.084-2.39-2.422c0-1.337 1.07-2.422 2.39-2.422z"/></g><g><path fill="none" stroke="#7095fd" stroke-linecap="round" stroke-miterlimit="50" stroke-width="2" d="M21.996 8.143v0L25.13 5.01v0l-3.134-3.135v0"/></g></g></g></svg>